# xmcd
# 
# Track frame offsets:
#     150
#     28612
#     53530
#     86735
#     107575
#     123655
#     143135
#     154600
#     184237
#     197762
#     229637
#     240035
#     262250
#     278172
# 
# Disc length: 4123
# 
# Revision: 0
# Processed by: cddbd v1.5.2PL0 Copyright (c) Steve Scherf et al.
# Submitted via: fre:ac v1.0.31
# 
DISCID=b910190e
DTITLE=Drowsy Maggie - The Essential Irish Collection
DYEAR=0
DGENRE=Folk
TTITLE0=Miss McLeod's Reel - Whiskey In The Jar - I'll Tell Me Ma - Muirsheen Durkin
TTITLE1=Lord Of The Dance - Gypsy Rover
TTITLE2=Boys Of The County Armagh - Black Velvet Band - Wild Rover
TTITLE3=Danny Boy
TTITLE4=Higgins Hornpipe - Lanigans Ball - Drowsy Maggies
TTITLE5=Leaving Of Liverpool - Roddy McCauley
TTITLE6=Irish Rover
TTITLE7=Patsy McCann - Far Away In Australia - Spancil Hill
TTITLE8=Molly Malone
TTITLE9=Maggie - Red Is The Rose - After All These Years
TTITLE10=Irish Washerwoman - Captain Pugwash
TTITLE11=Fields Of Anthenry
TTITLE12=Hills Of Donegal
TTITLE13=Holy Ground - Mason's Apron - Kneel Row - Scotland The Brave - Minstrel Boy - McNamaras Band - Peter Street
EXTD=
EXTT0=
EXTT1=
EXTT2=
EXTT3=
EXTT4=
EXTT5=
EXTT6=
EXTT7=
EXTT8=
EXTT9=
EXTT10=
EXTT11=
EXTT12=
EXTT13=
PLAYORDER=
